<?xml version="1.0" encoding="utf-8"?>
<!-- Generator: Adobe Illustrator 16.0.4, SVG Export Plug-In . SVG Version: 6.00 Build 0)  -->
<!DOCTYPE svg PUBLIC "-//W3C//DTD SVG 1.1//EN" "http://www.w3.org/Graphics/SVG/1.1/DTD/svg11.dtd">
<svg version="1.1" id="Layer_1" xmlns="http://www.w3.org/2000/svg" xmlns:xlink="http://www.w3.org/1999/xlink" x="0px" y="0px"
	 width="792px" height="612px" viewBox="0 0 792 612" enable-background="new 0 0 792 612" xml:space="preserve">
<path fill="#FFFFFF" d="M318.172,466.919h24.119v-43.103l-24.119-20.293V466.919z M380.015,425.149h20.191l5.46-4.584v-17.011
	L380.015,425.149z M378.062,175.419l-16.142,16.983l-43.673-45.958l55.426,24.354L378.062,175.419z M613.395,265.201V146.227
	l29.287,17.593V229C635.486,236.488,620.443,254.79,613.395,265.201z M642.682,288.94v177.979h-29.287V336.7
	C619.652,323.161,634.748,299.393,642.682,288.94z M489.916,466.919c-0.945-7.996-2.096-19.545-2.096-29.711
	c0-6.304,0.852-31.649,0.852-52.088c0-17.225-3.721-47.853-3.721-64.5c-0.01-10,0.734-23.566-0.367-28.351
	c7.977-5.158,14.949-8.476,36.947-21.787c7.125-4.31,20.723-11.609,20.723-20.383c0-3.895-1.027-6.442-6.568-10.984
	c-3.859-3.085-8.008-3.985-12.701-3.985c-11.209,0-16.279,11.231-25.68,16.986c-14.334,8.763-21.936,13.097-24.875,14.726
	c-1.176-0.533-6.052-3.436-13.904-3.436c-8.188,0-17.73,3.681-17.73,14.327c-0.008,4.888,1.552,10.168-4.973,13.597
	c-3.652,2.312-21.489,12.497-40.468,23.952c-16.007,9.661-23.462,8.884-30.213,12.946c-6.239,3.766-7.866,8.452-7.866,12.516
	c0,3.622,2.28,8.169,3.084,9.184c4.296,5.496,8.156,8.481,14.927,8.481c11.464,0,21.004-10.031,38.714-22.621
	c11.044-7.862,21.176-16.026,27.104-16.026c5.305,0,8.986,3.996,8.986,20.44c0,54.997-3.342,63.722-3.342,101.883
	c0,6.86,0.26,19.552,0.493,24.834h-29.166v-90.096l-56.154,47.312l-56.155-47.312v90.096H123.779V146.227h177.168l60.974,64.176
	l60.969-64.176h178.093v137.132c-5.631,8.692-22.842,38.171-34.43,68.262c-3.789,9.83-5.537,16.938-10.533,16.938
	c-5.482,0-5.941-5.402-6.457-10.266c-1.119-10.54-3.482-30.231-4.578-37.483c-2.123-14.031-4.904-28.87-20.568-28.87
	c-11.594,0-23.76,6.349-23.76,23.716c0,9.819,4.971,26.903,13.484,49.373c3.354,8.86,21.195,55.626,23.764,62.385
	c4.707,12.427,11.252,15.811,21.439,15.811c13.039,0,17.549-4.793,22.91-23.084c4.564-15.59,12.307-41.003,18.729-56.923
	c0-0.016,0,0,0,0v103.702H489.916z"/>
<path d="M655.395,457.775h-3.274v9.288h-2.854v-9.288h-3.273v-2.239h9.402V457.775z M669.47,467.063h-2.686v-8.17h-0.058
	l-2.964,8.17h-1.932l-2.966-8.17h-0.055v8.17h-2.687v-11.527h3.805l2.882,7.582l2.882-7.582h3.777V467.063z"/>
</svg>
